<svg width="21" height="21" viewBox="0 0 21 21" fill="none" xmlns="http://www.w3.org/2000/svg">
<path d="M20.0273 16.4634C20.8613 17.2978 20.8613 18.6458 20.0273 19.4802C19.6113 19.8962 19.0652 20.1052 18.5187 20.1052C17.9726 20.1052 17.4265 19.8962 17.0105 19.4802L10.6 13.0692L4.18946 19.4802C3.77344 19.8962 3.22726 20.1052 2.68116 20.1052C2.13468 20.1052 1.58862 19.8962 1.17261 19.4802C0.338622 18.6458 0.338622 17.2978 1.17261 16.4634L7.5835 10.0528L1.17261 3.64228C0.338622 2.80791 0.338622 1.45986 1.17261 0.625488C2.00698 -0.208496 3.35508 -0.208496 4.18946 0.625488L10.6 7.03642L17.0105 0.625488C17.8449 -0.208496 19.193 -0.208496 20.0273 0.625488C20.8613 1.45986 20.8613 2.80791 20.0273 3.64228L13.6163 10.0528L20.0273 16.4634Z" fill="#131921"/>
</svg>
