<svg width="28" height="14" viewBox="0 0 28 14" fill="none" xmlns="http://www.w3.org/2000/svg">
<path d="M0.32081 6.20081C0.321138 6.20048 0.321411 6.20008 0.321795 6.19974L6.03685 0.328771C6.465 -0.111044 7.15751 -0.109407 7.58369 0.332609C8.00982 0.774569 8.00817 1.48942 7.58003 1.92929L3.74293 5.87097H26.9063C27.5103 5.87097 28 6.37644 28 7C28 7.62356 27.5103 8.12903 26.9063 8.12903H3.74299L7.57997 12.0707C8.00812 12.5106 8.00976 13.2254 7.58364 13.6674C7.15746 14.1095 6.46489 14.111 6.0368 13.6712L0.321741 7.80026C0.321413 7.79992 0.321138 7.79952 0.320755 7.79919C-0.107613 7.35785 -0.106245 6.64069 0.32081 6.20081Z" fill="#131921"/>
</svg>
