<svg width="24" height="24" viewBox="0 0 24 24" fill="none" xmlns="http://www.w3.org/2000/svg">
<path d="M1.91998 13.9801H10.8V23.1001H3.59998C2.67838 23.1001 1.91998 22.3417 1.91998 21.4201V13.9801Z" fill="#F1C659"/>
<path d="M21.12 13.9801V21.4201C21.12 22.3417 20.3616 23.1001 19.44 23.1001H12.24V13.9801H21.12Z" fill="#F1C659"/>
<path d="M0 8.46003V10.86C0 11.7816 0.7584 12.54 1.68 12.54H1.92H10.8V11.1V6.78003H1.68C0.7584 6.78003 0 7.53843 0 8.46003Z" fill="#F1C659"/>
<path d="M21.36 6.78003H12.24V11.1V12.54H21.12H21.36C22.2816 12.54 23.04 11.7816 23.04 10.86V8.46003C23.04 7.53843 22.2816 6.78003 21.36 6.78003Z" fill="#F1C659"/>
<path d="M11.52 7.78229C11.3107 7.78229 11.111 7.69109 10.9757 7.53269C10.8384 7.37429 10.7779 7.16405 10.8077 6.95669C11.1629 4.55669 13.0377 0.0168457 17.5958 0.0168457C20.1974 0.0178057 21.12 1.42325 21.12 2.62709C21.12 4.76693 18.1411 7.78229 11.52 7.78229ZM17.5958 1.45781C14.1571 1.45781 12.8515 4.72661 12.4185 6.32117C15.1315 6.19445 16.8422 5.50805 17.8272 4.92341C19.1933 4.11221 19.68 3.20501 19.68 2.62613C19.68 1.76405 18.6038 1.45781 17.5958 1.45781Z" fill="#F1C659"/>
<path d="M11.521 7.7823C4.89984 7.7823 1.92096 4.76694 1.92096 2.6271C1.92096 1.42326 2.84448 0.0178223 5.44608 0.0178223C10.0032 0.0178223 11.8781 4.55766 12.2333 6.95766C12.263 7.16502 12.2026 7.37526 12.0653 7.53366C11.9299 7.6911 11.7302 7.7823 11.521 7.7823ZM5.44608 1.45782C4.43808 1.45782 3.36096 1.76502 3.36096 2.6271C3.36096 3.85302 5.50464 6.08694 10.6214 6.32214C10.1894 4.72662 8.88384 1.45782 5.44608 1.45782Z" fill="#F1C659"/>
</svg>
