<svg width="175" height="22" viewBox="0 0 175 22" fill="none" xmlns="http://www.w3.org/2000/svg">
<path fill-rule="evenodd" clip-rule="evenodd" d="M11.5309 0L15.5288 6.63995L23.0606 8.4034L18.0007 14.2696L18.6561 22L11.5309 18.9853L4.40451 22L5.05986 14.2696L0 8.4034L7.53179 6.63995L11.5309 0Z" fill="#F8E08A"/>
<path fill-rule="evenodd" clip-rule="evenodd" d="M49.5152 0L53.5143 6.63995L61.046 8.4034L55.9862 14.2696L56.6415 22L49.5152 18.9853L42.3888 22L43.0453 14.2696L37.9855 8.4034L45.5161 6.63995L49.5152 0Z" fill="#F8E08A"/>
<path fill-rule="evenodd" clip-rule="evenodd" d="M87.5006 0L91.4997 6.63995L99.0303 8.4034L93.9704 14.2696L94.627 22L87.5006 18.9853L80.3742 22L81.0296 14.2696L75.9697 8.4034L83.5015 6.63995L87.5006 0Z" fill="#F8E08A"/>
<path fill-rule="evenodd" clip-rule="evenodd" d="M125.485 0L129.484 6.63995L137.016 8.4034L131.956 14.2696L132.611 22L125.485 18.9853L118.358 22L119.015 14.2696L113.955 8.4034L121.486 6.63995L125.485 0Z" fill="#F8E08A"/>
<path fill-rule="evenodd" clip-rule="evenodd" d="M163.47 0L167.469 6.63995L175 8.4034L169.94 14.2696L170.597 22L163.47 18.9853L156.344 22L156.999 14.2696L151.939 8.4034L159.471 6.63995L163.47 0Z" fill="#F8E08A"/>
</svg>
