<svg width="220" height="28" viewBox="0 0 220 28" fill="none" xmlns="http://www.w3.org/2000/svg">
<path fill-rule="evenodd" clip-rule="evenodd" d="M14.463 0L19.4775 8.3025L28.9245 10.5075L22.578 17.8425L23.4 27.5085L14.463 23.739L5.5245 27.5085L6.3465 17.8425L0 10.5075L9.447 8.3025L14.463 0Z" fill="#F7C862"/>
<path fill-rule="evenodd" clip-rule="evenodd" d="M62.106 0L67.122 8.3025L76.569 10.5075L70.2225 17.8425L71.0445 27.5085L62.106 23.739L53.1675 27.5085L53.991 17.8425L47.6445 10.5075L57.09 8.3025L62.106 0Z" fill="#F7C862"/>
<path fill-rule="evenodd" clip-rule="evenodd" d="M109.751 0L114.767 8.3025L124.212 10.5075L117.866 17.8425L118.689 27.5085L109.751 23.739L100.812 27.5085L101.634 17.8425L95.2876 10.5075L104.735 8.3025L109.751 0Z" fill="#F7C862"/>
<path fill-rule="evenodd" clip-rule="evenodd" d="M157.394 0L162.41 8.3025L171.857 10.5075L165.51 17.8425L166.332 27.5085L157.394 23.739L148.455 27.5085L149.279 17.8425L142.932 10.5075L152.378 8.3025L157.394 0Z" fill="#F7C862"/>
<path fill-rule="evenodd" clip-rule="evenodd" d="M205.038 0L210.054 8.3025L219.5 10.5075L213.153 17.8425L213.977 27.5085L205.038 23.739L196.1 27.5085L196.922 17.8425L190.575 10.5075L200.022 8.3025L205.038 0Z" fill="#F7C862"/>
</svg>
