<svg width="223" height="31" viewBox="0 0 223 31" fill="none" xmlns="http://www.w3.org/2000/svg">
<path fill-rule="evenodd" clip-rule="evenodd" d="M16.463 2L21.4775 10.3025L30.9245 12.5075L24.578 19.8425L25.4 29.5085L16.463 25.739L7.5245 29.5085L8.3465 19.8425L2 12.5075L11.447 10.3025L16.463 2Z" fill="white" stroke="#FFC74B" stroke-width="1.5"/>
<path fill-rule="evenodd" clip-rule="evenodd" d="M64.106 2L69.122 10.3025L78.569 12.5075L72.2225 19.8425L73.0445 29.5085L64.106 25.739L55.1675 29.5085L55.991 19.8425L49.6445 12.5075L59.09 10.3025L64.106 2Z" fill="white" stroke="#FFC74B" stroke-width="1.5"/>
<path fill-rule="evenodd" clip-rule="evenodd" d="M111.751 2L116.767 10.3025L126.212 12.5075L119.866 19.8425L120.689 29.5085L111.751 25.739L102.812 29.5085L103.634 19.8425L97.2876 12.5075L106.735 10.3025L111.751 2Z" fill="white" stroke="#FFC74B" stroke-width="1.5"/>
<path fill-rule="evenodd" clip-rule="evenodd" d="M159.394 2L164.41 10.3025L173.857 12.5075L167.51 19.8425L168.332 29.5085L159.394 25.739L150.455 29.5085L151.279 19.8425L144.932 12.5075L154.378 10.3025L159.394 2Z" fill="white" stroke="#FFC74B" stroke-width="1.5"/>
<path fill-rule="evenodd" clip-rule="evenodd" d="M207.038 2L212.054 10.3025L221.5 12.5075L215.153 19.8425L215.977 29.5085L207.038 25.739L198.1 29.5085L198.922 19.8425L192.575 12.5075L202.022 10.3025L207.038 2Z" fill="white" stroke="#FFC74B" stroke-width="1.5"/>
</svg>
